<mxfile host="app.diagrams.net" agent="Mozilla/5.0 (Windows NT 10.0; Win64; x64) AppleWebKit/537.36 (KHTML, like Gecko) Chrome/131.0.0.0 Safari/537.36 Edg/131.0.0.0" version="26.0.2">
  <diagram name="第 1 页" id="a1mf-bk-g2aWCciDrHol">
    <mxGraphModel dx="2906" dy="1107" grid="1" gridSize="10" guides="1" tooltips="1" connect="1" arrows="1" fold="1" page="1" pageScale="1" pageWidth="827" pageHeight="1169" math="0" shadow="0">
      <root>
        <mxCell id="0" />
        <mxCell id="1" parent="0" />
        <mxCell id="22aAsMExEvnpkBeNvh_n-1" value="&lt;font face=&quot;Times New Roman&quot; style=&quot;font-size: 14px;&quot;&gt;&lt;b&gt;Logic Function&lt;/b&gt;&lt;/font&gt;&lt;div&gt;&lt;font style=&quot;font-size: 14px;&quot; face=&quot;Times New Roman&quot;&gt;&lt;b&gt;(.blif/.v)&lt;/b&gt;&lt;/font&gt;&lt;/div&gt;" style="whiteSpace=wrap;html=1;shape=mxgraph.basic.document;container=0;" vertex="1" parent="1">
          <mxGeometry x="29" y="511" width="80" height="90" as="geometry" />
        </mxCell>
        <mxCell id="22aAsMExEvnpkBeNvh_n-2" value="&lt;font face=&quot;Times New Roman&quot; style=&quot;font-size: 14px;&quot;&gt;&lt;b&gt;ABC&lt;/b&gt;&lt;/font&gt;" style="shape=cube;whiteSpace=wrap;html=1;boundedLbl=1;backgroundOutline=1;darkOpacity=0.05;darkOpacity2=0.1;fillColor=#dae8fc;strokeColor=#6c8ebf;container=0;" vertex="1" parent="1">
          <mxGeometry x="187.6500000000001" y="540" width="120" height="80" as="geometry" />
        </mxCell>
        <mxCell id="22aAsMExEvnpkBeNvh_n-3" style="edgeStyle=orthogonalEdgeStyle;rounded=0;orthogonalLoop=1;jettySize=auto;html=1;strokeWidth=2;exitX=0.988;exitY=0.61;exitDx=0;exitDy=0;exitPerimeter=0;entryX=-0.002;entryY=0.323;entryDx=0;entryDy=0;entryPerimeter=0;" edge="1" parent="1" source="22aAsMExEvnpkBeNvh_n-1" target="22aAsMExEvnpkBeNvh_n-2">
          <mxGeometry relative="1" as="geometry">
            <mxPoint x="110" y="552" as="sourcePoint" />
            <mxPoint x="187" y="554" as="targetPoint" />
            <Array as="points" />
          </mxGeometry>
        </mxCell>
        <mxCell id="22aAsMExEvnpkBeNvh_n-4" style="edgeStyle=orthogonalEdgeStyle;rounded=0;orthogonalLoop=1;jettySize=auto;html=1;exitX=0;exitY=0;exitDx=70;exitDy=80;exitPerimeter=0;entryX=1;entryY=0.5;entryDx=0;entryDy=0;strokeWidth=2;" edge="1" parent="1" source="22aAsMExEvnpkBeNvh_n-5" target="22aAsMExEvnpkBeNvh_n-10">
          <mxGeometry relative="1" as="geometry" />
        </mxCell>
        <mxCell id="22aAsMExEvnpkBeNvh_n-5" value="&lt;font style=&quot;font-size: 14px;&quot; face=&quot;Times New Roman&quot;&gt;&lt;b&gt;SIMPLEST MAGIC&lt;/b&gt;&lt;/font&gt;" style="shape=cube;whiteSpace=wrap;html=1;boundedLbl=1;backgroundOutline=1;darkOpacity=0.05;darkOpacity2=0.1;fillColor=#d5e8d4;strokeColor=#82b366;container=0;" vertex="1" parent="1">
          <mxGeometry x="520" y="540" width="120" height="80" as="geometry" />
        </mxCell>
        <mxCell id="22aAsMExEvnpkBeNvh_n-6" value="&lt;font face=&quot;Times New Roman&quot; style=&quot;font-size: 14px;&quot;&gt;&lt;b&gt;NOR and NOT netlist(.v)&lt;/b&gt;&lt;/font&gt;" style="whiteSpace=wrap;html=1;shape=mxgraph.basic.document;container=0;" vertex="1" parent="1">
          <mxGeometry x="374" y="535" width="80" height="90" as="geometry" />
        </mxCell>
        <mxCell id="22aAsMExEvnpkBeNvh_n-7" style="edgeStyle=orthogonalEdgeStyle;rounded=0;orthogonalLoop=1;jettySize=auto;html=1;entryX=0;entryY=0.5;entryDx=0;entryDy=0;entryPerimeter=0;strokeWidth=2;" edge="1" parent="1" source="22aAsMExEvnpkBeNvh_n-2" target="22aAsMExEvnpkBeNvh_n-6">
          <mxGeometry relative="1" as="geometry">
            <mxPoint x="309" y="579.5" as="sourcePoint" />
            <mxPoint x="387" y="579.5" as="targetPoint" />
          </mxGeometry>
        </mxCell>
        <mxCell id="22aAsMExEvnpkBeNvh_n-8" value="&lt;font face=&quot;Times New Roman&quot; style=&quot;font-size: 14px;&quot;&gt;&lt;b&gt;Micro operations&lt;/b&gt;&lt;/font&gt;&lt;div&gt;&lt;font face=&quot;Times New Roman&quot; style=&quot;font-size: 14px;&quot;&gt;&lt;b&gt;(.txt/.json)&lt;/b&gt;&lt;/font&gt;&lt;/div&gt;" style="whiteSpace=wrap;html=1;shape=mxgraph.basic.document;container=0;" vertex="1" parent="1">
          <mxGeometry x="700" y="535" width="80" height="90" as="geometry" />
        </mxCell>
        <mxCell id="22aAsMExEvnpkBeNvh_n-9" value="" style="endArrow=classic;startArrow=classic;html=1;rounded=0;exitX=0;exitY=0;exitDx=70;exitDy=80;exitPerimeter=0;strokeWidth=2;" edge="1" parent="1" source="22aAsMExEvnpkBeNvh_n-2">
          <mxGeometry width="50" height="50" relative="1" as="geometry">
            <mxPoint x="144.80999999999995" y="721.25" as="sourcePoint" />
            <mxPoint x="370" y="725" as="targetPoint" />
            <Array as="points">
              <mxPoint x="258" y="725" />
            </Array>
          </mxGeometry>
        </mxCell>
        <mxCell id="22aAsMExEvnpkBeNvh_n-10" value="&lt;font color=&quot;#333333&quot;&gt;&lt;span style=&quot;font-size: 14px;&quot;&gt;&lt;b&gt;DSE Based on Reinforcement Learning&lt;/b&gt;&lt;/span&gt;&lt;/font&gt;" style="rounded=1;whiteSpace=wrap;html=1;fontFamily=Times New Roman;fillColor=#fff2cc;strokeColor=#d6b656;container=0;" vertex="1" parent="1">
          <mxGeometry x="371" y="695" width="119" height="60" as="geometry" />
        </mxCell>
        <mxCell id="22aAsMExEvnpkBeNvh_n-11" value="&lt;font face=&quot;Times New Roman&quot;&gt;&lt;span style=&quot;font-size: 14px;&quot;&gt;&lt;b&gt;veriMAGIC&lt;/b&gt;&lt;/span&gt;&lt;/font&gt;" style="shape=cube;whiteSpace=wrap;html=1;boundedLbl=1;backgroundOutline=1;darkOpacity=0.05;darkOpacity2=0.1;fillColor=#d5e8d4;strokeColor=#82b366;container=0;" vertex="1" parent="1">
          <mxGeometry x="371" y="415" width="120" height="80" as="geometry" />
        </mxCell>
        <mxCell id="22aAsMExEvnpkBeNvh_n-12" style="edgeStyle=orthogonalEdgeStyle;rounded=0;orthogonalLoop=1;jettySize=auto;html=1;exitX=0;exitY=0.5;exitDx=0;exitDy=0;exitPerimeter=0;strokeWidth=2;" edge="1" parent="1" source="22aAsMExEvnpkBeNvh_n-1">
          <mxGeometry relative="1" as="geometry">
            <mxPoint x="370" y="455" as="targetPoint" />
            <Array as="points">
              <mxPoint x="10" y="556" />
              <mxPoint x="10" y="455" />
            </Array>
          </mxGeometry>
        </mxCell>
        <mxCell id="22aAsMExEvnpkBeNvh_n-13" style="edgeStyle=orthogonalEdgeStyle;rounded=0;orthogonalLoop=1;jettySize=auto;html=1;strokeWidth=2;" edge="1" parent="1" source="22aAsMExEvnpkBeNvh_n-8">
          <mxGeometry relative="1" as="geometry">
            <mxPoint x="490" y="455" as="targetPoint" />
            <Array as="points">
              <mxPoint x="810" y="580" />
              <mxPoint x="810" y="455" />
            </Array>
          </mxGeometry>
        </mxCell>
        <mxCell id="22aAsMExEvnpkBeNvh_n-14" value="&amp;nbsp;&lt;font face=&quot;Times New Roman&quot; style=&quot;font-size: 14px;&quot;&gt;&lt;b&gt;Customized &lt;br&gt;standard cell &lt;br&gt;library&lt;/b&gt;&lt;/font&gt;&lt;div&gt;&lt;font face=&quot;Times New Roman&quot; style=&quot;font-size: 14px;&quot;&gt;&lt;b&gt;(.genlib)&lt;/b&gt;&lt;/font&gt;&lt;/div&gt;" style="whiteSpace=wrap;html=1;shape=mxgraph.basic.document;container=0;" vertex="1" parent="1">
          <mxGeometry x="29" y="636" width="80.16" height="90" as="geometry" />
        </mxCell>
        <mxCell id="22aAsMExEvnpkBeNvh_n-15" style="edgeStyle=orthogonalEdgeStyle;rounded=0;orthogonalLoop=1;jettySize=auto;html=1;exitX=1;exitY=0.5;exitDx=0;exitDy=0;exitPerimeter=0;entryX=-0.002;entryY=0.543;entryDx=0;entryDy=0;entryPerimeter=0;strokeWidth=2;" edge="1" parent="1" source="22aAsMExEvnpkBeNvh_n-14" target="22aAsMExEvnpkBeNvh_n-2">
          <mxGeometry relative="1" as="geometry" />
        </mxCell>
        <mxCell id="22aAsMExEvnpkBeNvh_n-16" style="edgeStyle=orthogonalEdgeStyle;rounded=0;orthogonalLoop=1;jettySize=auto;html=1;entryX=0;entryY=0.5;entryDx=0;entryDy=0;entryPerimeter=0;strokeWidth=2;" edge="1" parent="1">
          <mxGeometry relative="1" as="geometry">
            <mxPoint x="454" y="579.5" as="sourcePoint" />
            <mxPoint x="520" y="579.5" as="targetPoint" />
          </mxGeometry>
        </mxCell>
        <mxCell id="22aAsMExEvnpkBeNvh_n-17" style="edgeStyle=orthogonalEdgeStyle;rounded=0;orthogonalLoop=1;jettySize=auto;html=1;strokeWidth=2;" edge="1" parent="1">
          <mxGeometry relative="1" as="geometry">
            <mxPoint x="640" y="579.5" as="sourcePoint" />
            <mxPoint x="700" y="580" as="targetPoint" />
          </mxGeometry>
        </mxCell>
        <mxCell id="22aAsMExEvnpkBeNvh_n-18" style="edgeStyle=orthogonalEdgeStyle;rounded=0;orthogonalLoop=1;jettySize=auto;html=1;exitX=1;exitY=0.5;exitDx=0;exitDy=0;entryX=0;entryY=0;entryDx=70;entryDy=80;entryPerimeter=0;strokeWidth=2;" edge="1" parent="1" source="22aAsMExEvnpkBeNvh_n-10" target="22aAsMExEvnpkBeNvh_n-5">
          <mxGeometry relative="1" as="geometry" />
        </mxCell>
      </root>
    </mxGraphModel>
  </diagram>
</mxfile>
